<mxfile host="app.diagrams.net" modified="2022-02-13T17:59:20.161Z" agent="5.0 (Macintosh; Intel Mac OS X 10_15_7) AppleWebKit/605.1.15 (KHTML, like Gecko) Version/15.1 Safari/605.1.15" etag="KHCUIg0oNUjWHVcj764T" version="16.5.6" type="github">
  <diagram id="Tkj1A4ed6r7dApSHsJ9w" name="Page-1">
    <mxGraphModel dx="1577" dy="888" grid="1" gridSize="10" guides="1" tooltips="1" connect="1" arrows="1" fold="1" page="1" pageScale="1" pageWidth="850" pageHeight="1100" math="0" shadow="0">
      <root>
        <mxCell id="0" />
        <mxCell id="1" parent="0" />
        <mxCell id="hJPmHNCPPr6CFfxgqDBl-1" value="Start" style="rounded=1;whiteSpace=wrap;html=1;fillColor=#FFB570;strokeColor=#d79b00;" vertex="1" parent="1">
          <mxGeometry x="390" width="120" height="60" as="geometry" />
        </mxCell>
        <mxCell id="hJPmHNCPPr6CFfxgqDBl-2" value="" style="endArrow=classic;html=1;rounded=0;" edge="1" parent="1" source="hJPmHNCPPr6CFfxgqDBl-1">
          <mxGeometry width="50" height="50" relative="1" as="geometry">
            <mxPoint x="400" y="190" as="sourcePoint" />
            <mxPoint x="450" y="120" as="targetPoint" />
          </mxGeometry>
        </mxCell>
        <mxCell id="hJPmHNCPPr6CFfxgqDBl-5" value="Array arr &lt;br&gt;of length N" style="shape=parallelogram;perimeter=parallelogramPerimeter;whiteSpace=wrap;html=1;fixedSize=1;fillColor=#7EA6E0;" vertex="1" parent="1">
          <mxGeometry x="390" y="120" width="120" height="60" as="geometry" />
        </mxCell>
        <mxCell id="hJPmHNCPPr6CFfxgqDBl-6" value="" style="endArrow=classic;html=1;rounded=0;" edge="1" parent="1">
          <mxGeometry width="50" height="50" relative="1" as="geometry">
            <mxPoint x="449.5" y="180" as="sourcePoint" />
            <mxPoint x="449.5" y="240" as="targetPoint" />
          </mxGeometry>
        </mxCell>
        <mxCell id="hJPmHNCPPr6CFfxgqDBl-7" value="i = 0&lt;br&gt;j = 0" style="shape=parallelogram;perimeter=parallelogramPerimeter;whiteSpace=wrap;html=1;fixedSize=1;fillColor=#7EA6E0;" vertex="1" parent="1">
          <mxGeometry x="390" y="240" width="120" height="60" as="geometry" />
        </mxCell>
        <mxCell id="hJPmHNCPPr6CFfxgqDBl-9" value="" style="endArrow=classic;html=1;rounded=0;" edge="1" parent="1">
          <mxGeometry width="50" height="50" relative="1" as="geometry">
            <mxPoint x="449.5" y="300" as="sourcePoint" />
            <mxPoint x="449.5" y="360" as="targetPoint" />
          </mxGeometry>
        </mxCell>
        <mxCell id="hJPmHNCPPr6CFfxgqDBl-10" value="arr[j] &amp;gt; &amp;nbsp;arr[j+1] ?" style="rhombus;whiteSpace=wrap;html=1;fillColor=#B5739D;" vertex="1" parent="1">
          <mxGeometry x="410" y="360" width="80" height="80" as="geometry" />
        </mxCell>
        <mxCell id="hJPmHNCPPr6CFfxgqDBl-11" value="" style="endArrow=classic;html=1;rounded=0;entryX=0;entryY=0.5;entryDx=0;entryDy=0;" edge="1" parent="1" target="hJPmHNCPPr6CFfxgqDBl-16">
          <mxGeometry width="50" height="50" relative="1" as="geometry">
            <mxPoint x="410" y="400" as="sourcePoint" />
            <mxPoint x="290" y="560" as="targetPoint" />
            <Array as="points">
              <mxPoint x="290" y="400" />
              <mxPoint x="290" y="650" />
            </Array>
          </mxGeometry>
        </mxCell>
        <mxCell id="hJPmHNCPPr6CFfxgqDBl-12" value="NO" style="edgeLabel;html=1;align=center;verticalAlign=middle;resizable=0;points=[];" vertex="1" connectable="0" parent="hJPmHNCPPr6CFfxgqDBl-11">
          <mxGeometry x="-0.6714" y="3" relative="1" as="geometry">
            <mxPoint as="offset" />
          </mxGeometry>
        </mxCell>
        <mxCell id="hJPmHNCPPr6CFfxgqDBl-13" value="YES" style="endArrow=classic;html=1;rounded=0;" edge="1" parent="1">
          <mxGeometry width="50" height="50" relative="1" as="geometry">
            <mxPoint x="449.5" y="440" as="sourcePoint" />
            <mxPoint x="449.5" y="500" as="targetPoint" />
          </mxGeometry>
        </mxCell>
        <mxCell id="hJPmHNCPPr6CFfxgqDBl-17" value="" style="edgeStyle=orthogonalEdgeStyle;rounded=0;orthogonalLoop=1;jettySize=auto;html=1;" edge="1" parent="1" source="hJPmHNCPPr6CFfxgqDBl-14" target="hJPmHNCPPr6CFfxgqDBl-16">
          <mxGeometry relative="1" as="geometry" />
        </mxCell>
        <mxCell id="hJPmHNCPPr6CFfxgqDBl-14" value="Swap arr[j] and arr[j+1]" style="rounded=0;whiteSpace=wrap;html=1;fillColor=#97D077;" vertex="1" parent="1">
          <mxGeometry x="390" y="500" width="120" height="60" as="geometry" />
        </mxCell>
        <mxCell id="hJPmHNCPPr6CFfxgqDBl-15" value="" style="endArrow=classic;html=1;rounded=0;" edge="1" parent="1">
          <mxGeometry width="50" height="50" relative="1" as="geometry">
            <mxPoint x="449.5" y="560" as="sourcePoint" />
            <mxPoint x="449.5" y="620" as="targetPoint" />
          </mxGeometry>
        </mxCell>
        <mxCell id="hJPmHNCPPr6CFfxgqDBl-16" value="j = j + 1" style="rounded=0;whiteSpace=wrap;html=1;fillColor=#97D077;" vertex="1" parent="1">
          <mxGeometry x="390" y="620" width="120" height="60" as="geometry" />
        </mxCell>
        <mxCell id="hJPmHNCPPr6CFfxgqDBl-18" value="" style="endArrow=classic;html=1;rounded=0;" edge="1" parent="1">
          <mxGeometry width="50" height="50" relative="1" as="geometry">
            <mxPoint x="449.5" y="680" as="sourcePoint" />
            <mxPoint x="449.5" y="740" as="targetPoint" />
          </mxGeometry>
        </mxCell>
        <mxCell id="hJPmHNCPPr6CFfxgqDBl-19" value="j &amp;lt; N - i - 1 ?" style="rhombus;whiteSpace=wrap;html=1;fillColor=#B5739D;" vertex="1" parent="1">
          <mxGeometry x="410" y="740" width="80" height="80" as="geometry" />
        </mxCell>
        <mxCell id="hJPmHNCPPr6CFfxgqDBl-20" value="NO" style="endArrow=classic;html=1;rounded=0;" edge="1" parent="1">
          <mxGeometry width="50" height="50" relative="1" as="geometry">
            <mxPoint x="449.5" y="820" as="sourcePoint" />
            <mxPoint x="449.5" y="880" as="targetPoint" />
          </mxGeometry>
        </mxCell>
        <mxCell id="hJPmHNCPPr6CFfxgqDBl-21" value="Output arr" style="shape=parallelogram;perimeter=parallelogramPerimeter;whiteSpace=wrap;html=1;fixedSize=1;fillColor=#7EA6E0;" vertex="1" parent="1">
          <mxGeometry x="390" y="1260" width="120" height="60" as="geometry" />
        </mxCell>
        <mxCell id="hJPmHNCPPr6CFfxgqDBl-22" value="" style="endArrow=classic;html=1;rounded=0;" edge="1" parent="1">
          <mxGeometry width="50" height="50" relative="1" as="geometry">
            <mxPoint x="449.41" y="1320" as="sourcePoint" />
            <mxPoint x="449.41" y="1380" as="targetPoint" />
          </mxGeometry>
        </mxCell>
        <mxCell id="hJPmHNCPPr6CFfxgqDBl-23" value="End" style="rounded=1;whiteSpace=wrap;html=1;fillColor=#FFB570;" vertex="1" parent="1">
          <mxGeometry x="390" y="1380" width="120" height="60" as="geometry" />
        </mxCell>
        <mxCell id="hJPmHNCPPr6CFfxgqDBl-24" value="" style="endArrow=classic;html=1;rounded=0;entryX=1;entryY=0.5;entryDx=0;entryDy=0;" edge="1" parent="1" target="hJPmHNCPPr6CFfxgqDBl-10">
          <mxGeometry width="50" height="50" relative="1" as="geometry">
            <mxPoint x="489" y="780" as="sourcePoint" />
            <mxPoint x="680" y="400" as="targetPoint" />
            <Array as="points">
              <mxPoint x="680" y="780" />
              <mxPoint x="680" y="400" />
            </Array>
          </mxGeometry>
        </mxCell>
        <mxCell id="hJPmHNCPPr6CFfxgqDBl-25" value="YES" style="edgeLabel;html=1;align=center;verticalAlign=middle;resizable=0;points=[];" vertex="1" connectable="0" parent="hJPmHNCPPr6CFfxgqDBl-24">
          <mxGeometry x="-0.753" y="1" relative="1" as="geometry">
            <mxPoint as="offset" />
          </mxGeometry>
        </mxCell>
        <mxCell id="hJPmHNCPPr6CFfxgqDBl-26" value="j = 0" style="rounded=0;whiteSpace=wrap;html=1;fillColor=#97D077;" vertex="1" parent="1">
          <mxGeometry x="390" y="880" width="120" height="60" as="geometry" />
        </mxCell>
        <mxCell id="hJPmHNCPPr6CFfxgqDBl-27" value="i = i &amp;nbsp;+ 1" style="rounded=0;whiteSpace=wrap;html=1;fillColor=#97D077;" vertex="1" parent="1">
          <mxGeometry x="390" y="1000" width="120" height="60" as="geometry" />
        </mxCell>
        <mxCell id="hJPmHNCPPr6CFfxgqDBl-28" value="" style="endArrow=classic;html=1;rounded=0;" edge="1" parent="1">
          <mxGeometry width="50" height="50" relative="1" as="geometry">
            <mxPoint x="449.5" y="940" as="sourcePoint" />
            <mxPoint x="449.5" y="1000" as="targetPoint" />
          </mxGeometry>
        </mxCell>
        <mxCell id="hJPmHNCPPr6CFfxgqDBl-29" value="i &amp;lt; N - 1 ?" style="rhombus;whiteSpace=wrap;html=1;fillColor=#B5739D;" vertex="1" parent="1">
          <mxGeometry x="410" y="1120" width="80" height="80" as="geometry" />
        </mxCell>
        <mxCell id="hJPmHNCPPr6CFfxgqDBl-30" value="" style="endArrow=classic;html=1;rounded=0;" edge="1" parent="1">
          <mxGeometry width="50" height="50" relative="1" as="geometry">
            <mxPoint x="449.5" y="1060" as="sourcePoint" />
            <mxPoint x="449.5" y="1120" as="targetPoint" />
          </mxGeometry>
        </mxCell>
        <mxCell id="hJPmHNCPPr6CFfxgqDBl-31" value="NO" style="endArrow=classic;html=1;rounded=0;" edge="1" parent="1">
          <mxGeometry width="50" height="50" relative="1" as="geometry">
            <mxPoint x="449.41" y="1200" as="sourcePoint" />
            <mxPoint x="449.41" y="1260" as="targetPoint" />
          </mxGeometry>
        </mxCell>
        <mxCell id="hJPmHNCPPr6CFfxgqDBl-32" value="" style="endArrow=classic;html=1;rounded=0;" edge="1" parent="1">
          <mxGeometry width="50" height="50" relative="1" as="geometry">
            <mxPoint x="490" y="1160" as="sourcePoint" />
            <mxPoint x="491" y="400" as="targetPoint" />
            <Array as="points">
              <mxPoint x="760" y="1160" />
              <mxPoint x="760" y="960" />
              <mxPoint x="760" y="780" />
              <mxPoint x="760" y="400" />
            </Array>
          </mxGeometry>
        </mxCell>
        <mxCell id="hJPmHNCPPr6CFfxgqDBl-33" value="YES" style="edgeLabel;html=1;align=center;verticalAlign=middle;resizable=0;points=[];" vertex="1" connectable="0" parent="hJPmHNCPPr6CFfxgqDBl-32">
          <mxGeometry x="-0.753" y="1" relative="1" as="geometry">
            <mxPoint as="offset" />
          </mxGeometry>
        </mxCell>
      </root>
    </mxGraphModel>
  </diagram>
</mxfile>
